FILM TITLE:Happy Feet 2-2011-720p BDRip x264 Ac3 5.1 mp4 Sub[X@720]

Genre: kids,family,animation

Release:2011

Director:George Miller

Writer:George Miller, Gary Eck, 

Stars: Elijah Wood, Robin Williams and Pink

Country: usa

Language: English

plot:Mumble's son, Erik, is struggling to realize his talents in the Emperor Penguin world. Meanwhile, Mumble and his family and friends discover a new threat their home -- one that will take everyone working together to save them.

IMDB Rating: 5.9

IMDB LINK: http://www.imdb.com/title/tt1402488/
*******************


Happy Feet 2-2011-720p BDRip x264 Ac3 5.1 mp4 Sub[X@720]
Format : MPEG-4
Format profile : Base Media
Codec ID : isom
File size : 3.23 GiB
Duration : 1h 39mn
Overall bit rate : 4 641 Kbps


Video
ID : 1
Format : AVC
Format/Info : Advanced Video Codec
Format profile : High@L4.1
Format settings, CABAC : Yes
Format settings, ReFrames : 4 frames
Codec ID : avc1
Codec ID/Info : Advanced Video Coding
Duration : 1h 39mn
Bit rate : 3 999 Kbps
Maximum bit rate : 27.4 Mbps
Width : 1280 pixels
Height : 544 pixels
Display aspect ratio : 2.35:1
Frame rate mode : Constant
Frame rate : 23.976 fps
Color space : YUV
Chroma subsampling : 4:2:0
Bit depth : 8 bits
Scan type : Progressive
Bits/(Pixel*Frame) : 0.240
Stream size : 2.78 GiB (86%)
Title : AVC MPEG4
Writing library : x264 core 124 

Audio
ID : 2
Format : AC-3
Format/Info : Audio Coding 3
Mode extension : CM (complete main)
Codec ID : ac-3
Duration : 1h 39mn
Bit rate mode : Constant
Bit rate : 640 Kbps
Channel(s) : 6 channels
Channel positions : Front: L C R, Side: L R, LFE
Sampling rate : 48.0 KHz
Bit depth : 16 bits
Compression mode : Lossy
Delay relative to video : -3s 337ms
Stream size : 456 MiB (14%)
Title : Ac3 5.1 640kbps